<?xml version="1.0" encoding="UTF-8"?>
<svg width="17px" height="17px" viewBox="0 0 17 17" version="1.1" xmlns="http://www.w3.org/2000/svg" xmlns:xlink="http://www.w3.org/1999/xlink">
    <!-- Generator: Sketch 46.2 (44496) - http://www.bohemiancoding.com/sketch -->
    <title>Group 4</title>
    <desc>Created with Sketch.</desc>
    <defs></defs>
    <g id="Page-1" stroke="none" stroke-width="1" fill="none" fill-rule="evenodd" opacity="0.5">
        <g id="08-TestMe-Detail" transform="translate(-1344.000000, -708.000000)">
            <g id="Group-12" transform="translate(217.000000, 206.000000)">
                <g id="Group-6" transform="translate(0.000000, 424.000000)">
                    <g id="Group-10" transform="translate(990.000000, 72.000000)">
                        <g id="Group">
                            <g id="Page-1" transform="translate(138.000000, 7.000000)">
                                <g id="Group-4">
                                    <path d="M9.17293846,1.57389231 C11.2720154,3.67296923 11.2720154,7.07496923 9.17293846,9.17266154 C7.07386154,11.2703538 3.67186154,11.2703538 1.57416923,9.17266154 C-0.524907692,7.07496923 -0.524907692,3.67296923 1.57416923,1.57389231 C3.67186154,-0.525184615 7.07386154,-0.525184615 9.17293846,1.57389231 Z" id="Stroke-1" stroke="#B0B0B0" stroke-width="2" stroke-linecap="round"></path>
                                    <path d="M10.1893648,9 C9.88450631,9 9.578457,9.11551277 9.34743146,9.34772917 C8.88418951,9.80978026 8.88418951,10.5683538 9.34743146,11.0315958 L13.5916327,15.275797 C13.8226583,15.5068226 14.1287076,15.6223353 14.433566,15.6223353 C14.7384245,15.6223353 15.0444738,15.5068226 15.2754993,15.275797 C15.7387413,14.8113642 15.7387413,14.0539815 15.2754993,13.5907396 L11.0324889,9.34772917 C10.8002725,9.11551277 10.4942232,9 10.1893648,9" id="Fill-3" fill="#B0B0B0"></path>
                                </g>
                            </g>
                        </g>
                    </g>
                </g>
            </g>
        </g>
    </g>
</svg>